<?xml version="1.0" encoding="UTF-8" standalone="no"?>
<!DOCTYPE svg PUBLIC "-//W3C//DTD SVG 1.1//EN" "http://www.w3.org/Graphics/SVG/1.1/DTD/svg11.dtd">
<svg width="100%" height="100%" viewBox="0 0 640 640" version="1.1" xmlns="http://www.w3.org/2000/svg" xmlns:xlink="http://www.w3.org/1999/xlink" xml:space="preserve" xmlns:serif="http://www.serif.com/" style="fill-rule:evenodd;clip-rule:evenodd;stroke-linejoin:round;stroke-miterlimit:2;">
    <g id="Artboard1" transform="matrix(0.99585,0,0,0.996708,-1.74288,-0.781024)">
        <rect x="1.75" y="0.784" width="642.667" height="642.114" style="fill:none;"/>
        <clipPath id="_clip1">
            <rect x="1.75" y="0.784" width="642.667" height="642.114"/>
        </clipPath>
        <g clip-path="url(#_clip1)">
            <g id="Background" transform="matrix(6.44162,0,0,4.61744,-285.925,-230.574)">
                <rect x="43.246" y="48.722" width="101.75" height="141.728" style="fill:white;"/>
            </g>
            <g id="Graphic" transform="matrix(1.00417,0,0,1.0033,308.163,331.767)">
                <path d="M0,-22.2C-25.7,-24.3 -54.3,-33.5 -76,-46.7C-84.8,-52 -85.5,-53.9 -84.1,-68.1C-81,-101.4 -80.5,-108.8 -80.5,-121.7C-80.6,-144 -85.9,-164.1 -98.5,-189.8C-102.2,-197.3 -104.9,-204.3 -104.9,-206C-104.9,-212.2 -94.6,-220.6 -80.9,-225.6C-70.2,-229.5 -56.6,-231.9 -35.6,-233.7C44.1,-240.4 114.1,-232 129.5,-214.1C135.3,-207.3 135.2,-206.1 127.2,-189.9C115,-165.1 109.1,-143.4 109.1,-123C109.1,-113 111.4,-78.6 113.1,-63.3C113.7,-58 113.7,-54.3 113.1,-53.2C111.9,-51 102.2,-44.8 91.6,-39.5C65.7,-26.5 30,-19.8 0,-22.2M-9.5,86.1C-80.7,80.3 -132.1,52.2 -152,8.4C-159.8,-8.9 -159.7,-28.5 -151.7,-37C-148,-40.9 -143.2,-41.5 -120.7,-40.7L-99.9,-40L-89.8,-33.5C-54.1,-10.6 -14.8,-0.3 26.3,-3.2C63.3,-5.8 92.1,-15.3 120,-34L129.6,-40.4L140.6,-41.4C146.6,-41.9 156.6,-42.2 162.6,-42C175.6,-41.6 179.2,-40 183.1,-33.1C185.4,-29.1 185.6,-27.6 185.6,-17.2C185.6,-4.5 184.5,0.2 178.4,12.3C170.2,28.6 157.5,42.4 139.7,54.3C115,70.7 89.3,79.9 55,84.3C43,85.9 1.7,87.1 -9.5,86.1M210,125.699L210,103.9L214.5,103.3C217,103 221.1,102.5 223.7,102.1C233.4,100.9 237.5,96.5 238.4,86.3C238.7,83 239.4,68.1 240,53.2C241.1,24.7 242.2,16.2 246.4,7.1C249.5,0.3 257,-7.7 263.8,-11.6C266.7,-13.2 269,-14.7 269,-14.9C269,-15.1 266.6,-16.5 263.8,-18.2C253.5,-24 245.1,-35.8 242.1,-48.9C241.5,-51.6 240.5,-68.1 240,-85.4C239.5,-102.7 238.6,-118.4 238.1,-120.3C235.6,-128.7 231.5,-131.2 218.4,-132.1L210,-132.7L210.6,-154.9L223.6,-154.9C236.3,-154.9 236.8,-154.8 243.3,-151.6C255.3,-145.7 261.3,-136.2 263.1,-119.9C263.6,-115.5 264.5,-99 265,-83.3C265.6,-65.8 266.6,-52.5 267.4,-48.9C270,-38 277.4,-30.9 289,-27.9L294.5,-26.5L294.5,-2.9L288.7,-1.6C281.1,0.1 278,1.8 273.7,6.6C267.4,13.6 265.9,22.699 264,68.199C262.9,94.8 262.1,99.9 258.5,107.199C251.8,120.699 241.7,125.699 221.4,125.699L210,125.699ZM-198.6,125.8C-208.7,124.7 -215.1,122.4 -220.4,117.7C-231,108.4 -232.6,102.3 -233.9,65.5C-235.1,32.6 -236.2,21.8 -239,14.4C-242.4,5.3 -250.3,-0.4 -262.4,-2.4C-264.2,-2.7 -264.4,-3.6 -264.7,-14.1C-265,-26.3 -264.7,-27.1 -259.9,-27.2C-256.1,-27.2 -247.8,-31.5 -244.2,-35.3C-242.4,-37.2 -240,-40.9 -238.8,-43.7C-236.4,-49 -236.2,-52.1 -234,-100.2C-232.9,-123.5 -231.5,-131.1 -226.6,-139.5C-223.3,-145.1 -219,-148.8 -211.9,-152.1C-207.1,-154.3 -204.7,-154.7 -193.1,-155.1L-179.9,-155.5L-179.9,-132.5L-188.3,-131.9C-201.1,-131 -206.1,-127.5 -207.9,-118.1C-208.5,-115.1 -209.4,-99.2 -209.9,-82.7C-210.8,-52.7 -211.5,-46.7 -215.4,-37.6C-218.2,-30.9 -223.9,-24.3 -231.3,-19.4L-238.6,-14.5L-233.4,-11.4C-227,-7.6 -220.8,-1.5 -217.4,4.3C-212.2,13.1 -211,21.4 -209.9,54.1C-209.3,70.7 -208.4,86.7 -207.8,89.7C-206,98.6 -200,102.7 -188.9,102.8C-179.7,102.8 -179.9,102.5 -179.9,115.4L-179.9,126.8L-185.7,126.7C-188.9,126.6 -194.7,126.2 -198.6,125.8M-59.2,215.7C-77.1,213.6 -90.1,205.1 -94.9,192.3C-97.2,186.2 -98.5,176.8 -97.6,173.2C-97,170.7 -96.8,170.7 -92.7,176.2C-90.4,179.3 -88.2,181.8 -87.9,181.8C-87.6,181.8 -86.8,180.8 -86.3,179.6C-85.3,177.5 -85.2,177.6 -83.3,181.8C-81.1,186.9 -77.9,190.2 -73.8,191.7C-65.2,195 -57.7,191.3 -42.9,176.7C-29.1,163 -23.5,158.5 -17.6,156.2C-8.5,152.7 -0.7,156.2 9,167.9C11.9,171.4 14.5,174.3 14.8,174.4C15.1,174.5 17.7,171.6 20.4,167.9C27.2,158.9 33.3,155.2 40.9,155.3C49.1,155.4 53.7,158.5 70.9,175.2C89.6,193.4 95,196.1 103.9,191.5C108.2,189.3 111.3,184.9 113.4,178.2C114,176.4 114.2,176.5 115.6,179.1L117.2,182L120.3,178.1C127.5,169.1 126.8,169.2 126.9,177.8C126.9,187.9 124.3,194.9 118,201.9C108.9,211.8 97.5,215.9 79.5,215.8C60.8,215.7 39.5,208.5 21.7,196.2L14.9,191.5L6.6,197C-14.7,211.4 -38.7,218.2 -59.2,215.7" style="fill-rule:nonzero;"/>
            </g>
        </g>
    </g>
</svg>
